<svg xmlns="http://www.w3.org/2000/svg" xml:space="preserve" xmlns:xlink="http://www.w3.org/1999/xlink" style="max-width: 100%;height: auto;" width="990" height="990" viewBox="0 0 990 990">
<rect width="990" height="990" fill="#ffffff" x="0" y="0"></rect>
<g fill="#000000">
<g transform="translate(220,44) scale(3.7766666666667)"><rect width="6" height="6"></rect></g>
<g transform="translate(264,44) scale(3.7766666666667)"><rect width="6" height="6"></rect></g>
<g transform="translate(286,44) scale(3.7766666666667)"><rect width="6" height="6"></rect></g>
<g transform="translate(308,44) scale(3.7766666666667)"><rect width="6" height="6"></rect></g>
<g transform="translate(330,44) scale(3.7766666666667)"><rect width="6" height="6"></rect></g>
<g transform="translate(352,44) scale(3.7766666666667)"><rect width="6" height="6"></rect></g>
<g transform="translate(396,44) scale(3.7766666666667)"><rect width="6" height="6"></rect></g>
<g transform="translate(418,44) scale(3.7766666666667)"><rect width="6" height="6"></rect></g>
<g transform="translate(484,44) scale(3.7766666666667)"><rect width="6" height="6"></rect></g>
<g transform="translate(506,44) scale(3.7766666666667)"><rect width="6" height="6"></rect></g>
<g transform="translate(528,44) scale(3.7766666666667)"><rect width="6" height="6"></rect></g>
<g transform="translate(550,44) scale(3.7766666666667)"><rect width="6" height="6"></rect></g>
<g transform="translate(594,44) scale(3.7766666666667)"><rect width="6" height="6"></rect></g>
<g transform="translate(660,44) scale(3.7766666666667)"><rect width="6" height="6"></rect></g>
<g transform="translate(704,44) scale(3.7766666666667)"><rect width="6" height="6"></rect></g>
<g transform="translate(726,44) scale(3.7766666666667)"><rect width="6" height="6"></rect></g>
<g transform="translate(748,44) scale(3.7766666666667)"><rect width="6" height="6"></rect></g>
<g transform="translate(220,66) scale(3.7766666666667)"><rect width="6" height="6"></rect></g>
<g transform="translate(264,66) scale(3.7766666666667)"><rect width="6" height="6"></rect></g>
<g transform="translate(330,66) scale(3.7766666666667)"><rect width="6" height="6"></rect></g>
<g transform="translate(374,66) scale(3.7766666666667)"><rect width="6" height="6"></rect></g>
<g transform="translate(506,66) scale(3.7766666666667)"><rect width="6" height="6"></rect></g>
<g transform="translate(550,66) scale(3.7766666666667)"><rect width="6" height="6"></rect></g>
<g transform="translate(594,66) scale(3.7766666666667)"><rect width="6" height="6"></rect></g>
<g transform="translate(616,66) scale(3.7766666666667)"><rect width="6" height="6"></rect></g>
<g transform="translate(638,66) scale(3.7766666666667)"><rect width="6" height="6"></rect></g>
<g transform="translate(660,66) scale(3.7766666666667)"><rect width="6" height="6"></rect></g>
<g transform="translate(704,66) scale(3.7766666666667)"><rect width="6" height="6"></rect></g>
<g transform="translate(748,66) scale(3.7766666666667)"><rect width="6" height="6"></rect></g>
<g transform="translate(220,88) scale(3.7766666666667)"><rect width="6" height="6"></rect></g>
<g transform="translate(242,88) scale(3.7766666666667)"><rect width="6" height="6"></rect></g>
<g transform="translate(286,88) scale(3.7766666666667)"><rect width="6" height="6"></rect></g>
<g transform="translate(330,88) scale(3.7766666666667)"><rect width="6" height="6"></rect></g>
<g transform="translate(352,88) scale(3.7766666666667)"><rect width="6" height="6"></rect></g>
<g transform="translate(374,88) scale(3.7766666666667)"><rect width="6" height="6"></rect></g>
<g transform="translate(484,88) scale(3.7766666666667)"><rect width="6" height="6"></rect></g>
<g transform="translate(572,88) scale(3.7766666666667)"><rect width="6" height="6"></rect></g>
<g transform="translate(594,88) scale(3.7766666666667)"><rect width="6" height="6"></rect></g>
<g transform="translate(638,88) scale(3.7766666666667)"><rect width="6" height="6"></rect></g>
<g transform="translate(726,88) scale(3.7766666666667)"><rect width="6" height="6"></rect></g>
<g transform="translate(748,88) scale(3.7766666666667)"><rect width="6" height="6"></rect></g>
<g transform="translate(242,110) scale(3.7766666666667)"><rect width="6" height="6"></rect></g>
<g transform="translate(286,110) scale(3.7766666666667)"><rect width="6" height="6"></rect></g>
<g transform="translate(308,110) scale(3.7766666666667)"><rect width="6" height="6"></rect></g>
<g transform="translate(330,110) scale(3.7766666666667)"><rect width="6" height="6"></rect></g>
<g transform="translate(352,110) scale(3.7766666666667)"><rect width="6" height="6"></rect></g>
<g transform="translate(374,110) scale(3.7766666666667)"><rect width="6" height="6"></rect></g>
<g transform="translate(396,110) scale(3.7766666666667)"><rect width="6" height="6"></rect></g>
<g transform="translate(418,110) scale(3.7766666666667)"><rect width="6" height="6"></rect></g>
<g transform="translate(462,110) scale(3.7766666666667)"><rect width="6" height="6"></rect></g>
<g transform="translate(550,110) scale(3.7766666666667)"><rect width="6" height="6"></rect></g>
<g transform="translate(616,110) scale(3.7766666666667)"><rect width="6" height="6"></rect></g>
<g transform="translate(704,110) scale(3.7766666666667)"><rect width="6" height="6"></rect></g>
<g transform="translate(726,110) scale(3.7766666666667)"><rect width="6" height="6"></rect></g>
<g transform="translate(242,132) scale(3.7766666666667)"><rect width="6" height="6"></rect></g>
<g transform="translate(264,132) scale(3.7766666666667)"><rect width="6" height="6"></rect></g>
<g transform="translate(330,132) scale(3.7766666666667)"><rect width="6" height="6"></rect></g>
<g transform="translate(352,132) scale(3.7766666666667)"><rect width="6" height="6"></rect></g>
<g transform="translate(462,132) scale(3.7766666666667)"><rect width="6" height="6"></rect></g>
<g transform="translate(506,132) scale(3.7766666666667)"><rect width="6" height="6"></rect></g>
<g transform="translate(528,132) scale(3.7766666666667)"><rect width="6" height="6"></rect></g>
<g transform="translate(572,132) scale(3.7766666666667)"><rect width="6" height="6"></rect></g>
<g transform="translate(594,132) scale(3.7766666666667)"><rect width="6" height="6"></rect></g>
<g transform="translate(660,132) scale(3.7766666666667)"><rect width="6" height="6"></rect></g>
<g transform="translate(682,132) scale(3.7766666666667)"><rect width="6" height="6"></rect></g>
<g transform="translate(726,132) scale(3.7766666666667)"><rect width="6" height="6"></rect></g>
<g transform="translate(748,132) scale(3.7766666666667)"><rect width="6" height="6"></rect></g>
<g transform="translate(220,154) scale(3.7766666666667)"><rect width="6" height="6"></rect></g>
<g transform="translate(308,154) scale(3.7766666666667)"><rect width="6" height="6"></rect></g>
<g transform="translate(330,154) scale(3.7766666666667)"><rect width="6" height="6"></rect></g>
<g transform="translate(352,154) scale(3.7766666666667)"><rect width="6" height="6"></rect></g>
<g transform="translate(374,154) scale(3.7766666666667)"><rect width="6" height="6"></rect></g>
<g transform="translate(462,154) scale(3.7766666666667)"><rect width="6" height="6"></rect></g>
<g transform="translate(484,154) scale(3.7766666666667)"><rect width="6" height="6"></rect></g>
<g transform="translate(506,154) scale(3.7766666666667)"><rect width="6" height="6"></rect></g>
<g transform="translate(572,154) scale(3.7766666666667)"><rect width="6" height="6"></rect></g>
<g transform="translate(594,154) scale(3.7766666666667)"><rect width="6" height="6"></rect></g>
<g transform="translate(638,154) scale(3.7766666666667)"><rect width="6" height="6"></rect></g>
<g transform="translate(682,154) scale(3.7766666666667)"><rect width="6" height="6"></rect></g>
<g transform="translate(704,154) scale(3.7766666666667)"><rect width="6" height="6"></rect></g>
<g transform="translate(220,176) scale(3.7766666666667)"><rect width="6" height="6"></rect></g>
<g transform="translate(264,176) scale(3.7766666666667)"><rect width="6" height="6"></rect></g>
<g transform="translate(308,176) scale(3.7766666666667)"><rect width="6" height="6"></rect></g>
<g transform="translate(352,176) scale(3.7766666666667)"><rect width="6" height="6"></rect></g>
<g transform="translate(396,176) scale(3.7766666666667)"><rect width="6" height="6"></rect></g>
<g transform="translate(440,176) scale(3.7766666666667)"><rect width="6" height="6"></rect></g>
<g transform="translate(484,176) scale(3.7766666666667)"><rect width="6" height="6"></rect></g>
<g transform="translate(528,176) scale(3.7766666666667)"><rect width="6" height="6"></rect></g>
<g transform="translate(572,176) scale(3.7766666666667)"><rect width="6" height="6"></rect></g>
<g transform="translate(616,176) scale(3.7766666666667)"><rect width="6" height="6"></rect></g>
<g transform="translate(660,176) scale(3.7766666666667)"><rect width="6" height="6"></rect></g>
<g transform="translate(704,176) scale(3.7766666666667)"><rect width="6" height="6"></rect></g>
<g transform="translate(748,176) scale(3.7766666666667)"><rect width="6" height="6"></rect></g>
<g transform="translate(220,198) scale(3.7766666666667)"><rect width="6" height="6"></rect></g>
<g transform="translate(264,198) scale(3.7766666666667)"><rect width="6" height="6"></rect></g>
<g transform="translate(286,198) scale(3.7766666666667)"><rect width="6" height="6"></rect></g>
<g transform="translate(308,198) scale(3.7766666666667)"><rect width="6" height="6"></rect></g>
<g transform="translate(330,198) scale(3.7766666666667)"><rect width="6" height="6"></rect></g>
<g transform="translate(374,198) scale(3.7766666666667)"><rect width="6" height="6"></rect></g>
<g transform="translate(396,198) scale(3.7766666666667)"><rect width="6" height="6"></rect></g>
<g transform="translate(462,198) scale(3.7766666666667)"><rect width="6" height="6"></rect></g>
<g transform="translate(484,198) scale(3.7766666666667)"><rect width="6" height="6"></rect></g>
<g transform="translate(528,198) scale(3.7766666666667)"><rect width="6" height="6"></rect></g>
<g transform="translate(550,198) scale(3.7766666666667)"><rect width="6" height="6"></rect></g>
<g transform="translate(572,198) scale(3.7766666666667)"><rect width="6" height="6"></rect></g>
<g transform="translate(660,198) scale(3.7766666666667)"><rect width="6" height="6"></rect></g>
<g transform="translate(704,198) scale(3.7766666666667)"><rect width="6" height="6"></rect></g>
<g transform="translate(748,198) scale(3.7766666666667)"><rect width="6" height="6"></rect></g>
<g transform="translate(88,220) scale(3.7766666666667)"><rect width="6" height="6"></rect></g>
<g transform="translate(110,220) scale(3.7766666666667)"><rect width="6" height="6"></rect></g>
<g transform="translate(132,220) scale(3.7766666666667)"><rect width="6" height="6"></rect></g>
<g transform="translate(176,220) scale(3.7766666666667)"><rect width="6" height="6"></rect></g>
<g transform="translate(220,220) scale(3.7766666666667)"><rect width="6" height="6"></rect></g>
<g transform="translate(264,220) scale(3.7766666666667)"><rect width="6" height="6"></rect></g>
<g transform="translate(308,220) scale(3.7766666666667)"><rect width="6" height="6"></rect></g>
<g transform="translate(418,220) scale(3.7766666666667)"><rect width="6" height="6"></rect></g>
<g transform="translate(440,220) scale(3.7766666666667)"><rect width="6" height="6"></rect></g>
<g transform="translate(462,220) scale(3.7766666666667)"><rect width="6" height="6"></rect></g>
<g transform="translate(572,220) scale(3.7766666666667)"><rect width="6" height="6"></rect></g>
<g transform="translate(682,220) scale(3.7766666666667)"><rect width="6" height="6"></rect></g>
<g transform="translate(770,220) scale(3.7766666666667)"><rect width="6" height="6"></rect></g>
<g transform="translate(792,220) scale(3.7766666666667)"><rect width="6" height="6"></rect></g>
<g transform="translate(814,220) scale(3.7766666666667)"><rect width="6" height="6"></rect></g>
<g transform="translate(880,220) scale(3.7766666666667)"><rect width="6" height="6"></rect></g>
<g transform="translate(902,220) scale(3.7766666666667)"><rect width="6" height="6"></rect></g>
<g transform="translate(924,220) scale(3.7766666666667)"><rect width="6" height="6"></rect></g>
<g transform="translate(44,242) scale(3.7766666666667)"><rect width="6" height="6"></rect></g>
<g transform="translate(88,242) scale(3.7766666666667)"><rect width="6" height="6"></rect></g>
<g transform="translate(132,242) scale(3.7766666666667)"><rect width="6" height="6"></rect></g>
<g transform="translate(198,242) scale(3.7766666666667)"><rect width="6" height="6"></rect></g>
<g transform="translate(242,242) scale(3.7766666666667)"><rect width="6" height="6"></rect></g>
<g transform="translate(264,242) scale(3.7766666666667)"><rect width="6" height="6"></rect></g>
<g transform="translate(330,242) scale(3.7766666666667)"><rect width="6" height="6"></rect></g>
<g transform="translate(374,242) scale(3.7766666666667)"><rect width="6" height="6"></rect></g>
<g transform="translate(396,242) scale(3.7766666666667)"><rect width="6" height="6"></rect></g>
<g transform="translate(418,242) scale(3.7766666666667)"><rect width="6" height="6"></rect></g>
<g transform="translate(440,242) scale(3.7766666666667)"><rect width="6" height="6"></rect></g>
<g transform="translate(528,242) scale(3.7766666666667)"><rect width="6" height="6"></rect></g>
<g transform="translate(616,242) scale(3.7766666666667)"><rect width="6" height="6"></rect></g>
<g transform="translate(660,242) scale(3.7766666666667)"><rect width="6" height="6"></rect></g>
<g transform="translate(682,242) scale(3.7766666666667)"><rect width="6" height="6"></rect></g>
<g transform="translate(704,242) scale(3.7766666666667)"><rect width="6" height="6"></rect></g>
<g transform="translate(726,242) scale(3.7766666666667)"><rect width="6" height="6"></rect></g>
<g transform="translate(748,242) scale(3.7766666666667)"><rect width="6" height="6"></rect></g>
<g transform="translate(770,242) scale(3.7766666666667)"><rect width="6" height="6"></rect></g>
<g transform="translate(792,242) scale(3.7766666666667)"><rect width="6" height="6"></rect></g>
<g transform="translate(836,242) scale(3.7766666666667)"><rect width="6" height="6"></rect></g>
<g transform="translate(880,242) scale(3.7766666666667)"><rect width="6" height="6"></rect></g>
<g transform="translate(902,242) scale(3.7766666666667)"><rect width="6" height="6"></rect></g>
<g transform="translate(66,264) scale(3.7766666666667)"><rect width="6" height="6"></rect></g>
<g transform="translate(110,264) scale(3.7766666666667)"><rect width="6" height="6"></rect></g>
<g transform="translate(176,264) scale(3.7766666666667)"><rect width="6" height="6"></rect></g>
<g transform="translate(264,264) scale(3.7766666666667)"><rect width="6" height="6"></rect></g>
<g transform="translate(286,264) scale(3.7766666666667)"><rect width="6" height="6"></rect></g>
<g transform="translate(330,264) scale(3.7766666666667)"><rect width="6" height="6"></rect></g>
<g transform="translate(352,264) scale(3.7766666666667)"><rect width="6" height="6"></rect></g>
<g transform="translate(374,264) scale(3.7766666666667)"><rect width="6" height="6"></rect></g>
<g transform="translate(462,264) scale(3.7766666666667)"><rect width="6" height="6"></rect></g>
<g transform="translate(484,264) scale(3.7766666666667)"><rect width="6" height="6"></rect></g>
<g transform="translate(506,264) scale(3.7766666666667)"><rect width="6" height="6"></rect></g>
<g transform="translate(528,264) scale(3.7766666666667)"><rect width="6" height="6"></rect></g>
<g transform="translate(550,264) scale(3.7766666666667)"><rect width="6" height="6"></rect></g>
<g transform="translate(572,264) scale(3.7766666666667)"><rect width="6" height="6"></rect></g>
<g transform="translate(594,264) scale(3.7766666666667)"><rect width="6" height="6"></rect></g>
<g transform="translate(638,264) scale(3.7766666666667)"><rect width="6" height="6"></rect></g>
<g transform="translate(660,264) scale(3.7766666666667)"><rect width="6" height="6"></rect></g>
<g transform="translate(682,264) scale(3.7766666666667)"><rect width="6" height="6"></rect></g>
<g transform="translate(748,264) scale(3.7766666666667)"><rect width="6" height="6"></rect></g>
<g transform="translate(770,264) scale(3.7766666666667)"><rect width="6" height="6"></rect></g>
<g transform="translate(902,264) scale(3.7766666666667)"><rect width="6" height="6"></rect></g>
<g transform="translate(66,286) scale(3.7766666666667)"><rect width="6" height="6"></rect></g>
<g transform="translate(110,286) scale(3.7766666666667)"><rect width="6" height="6"></rect></g>
<g transform="translate(132,286) scale(3.7766666666667)"><rect width="6" height="6"></rect></g>
<g transform="translate(154,286) scale(3.7766666666667)"><rect width="6" height="6"></rect></g>
<g transform="translate(198,286) scale(3.7766666666667)"><rect width="6" height="6"></rect></g>
<g transform="translate(374,286) scale(3.7766666666667)"><rect width="6" height="6"></rect></g>
<g transform="translate(396,286) scale(3.7766666666667)"><rect width="6" height="6"></rect></g>
<g transform="translate(440,286) scale(3.7766666666667)"><rect width="6" height="6"></rect></g>
<g transform="translate(484,286) scale(3.7766666666667)"><rect width="6" height="6"></rect></g>
<g transform="translate(506,286) scale(3.7766666666667)"><rect width="6" height="6"></rect></g>
<g transform="translate(616,286) scale(3.7766666666667)"><rect width="6" height="6"></rect></g>
<g transform="translate(638,286) scale(3.7766666666667)"><rect width="6" height="6"></rect></g>
<g transform="translate(704,286) scale(3.7766666666667)"><rect width="6" height="6"></rect></g>
<g transform="translate(726,286) scale(3.7766666666667)"><rect width="6" height="6"></rect></g>
<g transform="translate(748,286) scale(3.7766666666667)"><rect width="6" height="6"></rect></g>
<g transform="translate(836,286) scale(3.7766666666667)"><rect width="6" height="6"></rect></g>
<g transform="translate(858,286) scale(3.7766666666667)"><rect width="6" height="6"></rect></g>
<g transform="translate(924,286) scale(3.7766666666667)"><rect width="6" height="6"></rect></g>
<g transform="translate(44,308) scale(3.7766666666667)"><rect width="6" height="6"></rect></g>
<g transform="translate(88,308) scale(3.7766666666667)"><rect width="6" height="6"></rect></g>
<g transform="translate(154,308) scale(3.7766666666667)"><rect width="6" height="6"></rect></g>
<g transform="translate(176,308) scale(3.7766666666667)"><rect width="6" height="6"></rect></g>
<g transform="translate(220,308) scale(3.7766666666667)"><rect width="6" height="6"></rect></g>
<g transform="translate(242,308) scale(3.7766666666667)"><rect width="6" height="6"></rect></g>
<g transform="translate(264,308) scale(3.7766666666667)"><rect width="6" height="6"></rect></g>
<g transform="translate(286,308) scale(3.7766666666667)"><rect width="6" height="6"></rect></g>
<g transform="translate(308,308) scale(3.7766666666667)"><rect width="6" height="6"></rect></g>
<g transform="translate(330,308) scale(3.7766666666667)"><rect width="6" height="6"></rect></g>
<g transform="translate(374,308) scale(3.7766666666667)"><rect width="6" height="6"></rect></g>
<g transform="translate(418,308) scale(3.7766666666667)"><rect width="6" height="6"></rect></g>
<g transform="translate(484,308) scale(3.7766666666667)"><rect width="6" height="6"></rect></g>
<g transform="translate(506,308) scale(3.7766666666667)"><rect width="6" height="6"></rect></g>
<g transform="translate(528,308) scale(3.7766666666667)"><rect width="6" height="6"></rect></g>
<g transform="translate(572,308) scale(3.7766666666667)"><rect width="6" height="6"></rect></g>
<g transform="translate(638,308) scale(3.7766666666667)"><rect width="6" height="6"></rect></g>
<g transform="translate(660,308) scale(3.7766666666667)"><rect width="6" height="6"></rect></g>
<g transform="translate(682,308) scale(3.7766666666667)"><rect width="6" height="6"></rect></g>
<g transform="translate(726,308) scale(3.7766666666667)"><rect width="6" height="6"></rect></g>
<g transform="translate(770,308) scale(3.7766666666667)"><rect width="6" height="6"></rect></g>
<g transform="translate(814,308) scale(3.7766666666667)"><rect width="6" height="6"></rect></g>
<g transform="translate(858,308) scale(3.7766666666667)"><rect width="6" height="6"></rect></g>
<g transform="translate(880,308) scale(3.7766666666667)"><rect width="6" height="6"></rect></g>
<g transform="translate(44,330) scale(3.7766666666667)"><rect width="6" height="6"></rect></g>
<g transform="translate(66,330) scale(3.7766666666667)"><rect width="6" height="6"></rect></g>
<g transform="translate(110,330) scale(3.7766666666667)"><rect width="6" height="6"></rect></g>
<g transform="translate(132,330) scale(3.7766666666667)"><rect width="6" height="6"></rect></g>
<g transform="translate(198,330) scale(3.7766666666667)"><rect width="6" height="6"></rect></g>
<g transform="translate(220,330) scale(3.7766666666667)"><rect width="6" height="6"></rect></g>
<g transform="translate(242,330) scale(3.7766666666667)"><rect width="6" height="6"></rect></g>
<g transform="translate(264,330) scale(3.7766666666667)"><rect width="6" height="6"></rect></g>
<g transform="translate(286,330) scale(3.7766666666667)"><rect width="6" height="6"></rect></g>
<g transform="translate(352,330) scale(3.7766666666667)"><rect width="6" height="6"></rect></g>
<g transform="translate(374,330) scale(3.7766666666667)"><rect width="6" height="6"></rect></g>
<g transform="translate(396,330) scale(3.7766666666667)"><rect width="6" height="6"></rect></g>
<g transform="translate(418,330) scale(3.7766666666667)"><rect width="6" height="6"></rect></g>
<g transform="translate(440,330) scale(3.7766666666667)"><rect width="6" height="6"></rect></g>
<g transform="translate(506,330) scale(3.7766666666667)"><rect width="6" height="6"></rect></g>
<g transform="translate(528,330) scale(3.7766666666667)"><rect width="6" height="6"></rect></g>
<g transform="translate(550,330) scale(3.7766666666667)"><rect width="6" height="6"></rect></g>
<g transform="translate(572,330) scale(3.7766666666667)"><rect width="6" height="6"></rect></g>
<g transform="translate(594,330) scale(3.7766666666667)"><rect width="6" height="6"></rect></g>
<g transform="translate(616,330) scale(3.7766666666667)"><rect width="6" height="6"></rect></g>
<g transform="translate(638,330) scale(3.7766666666667)"><rect width="6" height="6"></rect></g>
<g transform="translate(682,330) scale(3.7766666666667)"><rect width="6" height="6"></rect></g>
<g transform="translate(704,330) scale(3.7766666666667)"><rect width="6" height="6"></rect></g>
<g transform="translate(748,330) scale(3.7766666666667)"><rect width="6" height="6"></rect></g>
<g transform="translate(814,330) scale(3.7766666666667)"><rect width="6" height="6"></rect></g>
<g transform="translate(836,330) scale(3.7766666666667)"><rect width="6" height="6"></rect></g>
<g transform="translate(924,330) scale(3.7766666666667)"><rect width="6" height="6"></rect></g>
<g transform="translate(44,352) scale(3.7766666666667)"><rect width="6" height="6"></rect></g>
<g transform="translate(132,352) scale(3.7766666666667)"><rect width="6" height="6"></rect></g>
<g transform="translate(154,352) scale(3.7766666666667)"><rect width="6" height="6"></rect></g>
<g transform="translate(176,352) scale(3.7766666666667)"><rect width="6" height="6"></rect></g>
<g transform="translate(264,352) scale(3.7766666666667)"><rect width="6" height="6"></rect></g>
<g transform="translate(308,352) scale(3.7766666666667)"><rect width="6" height="6"></rect></g>
<g transform="translate(352,352) scale(3.7766666666667)"><rect width="6" height="6"></rect></g>
<g transform="translate(418,352) scale(3.7766666666667)"><rect width="6" height="6"></rect></g>
<g transform="translate(440,352) scale(3.7766666666667)"><rect width="6" height="6"></rect></g>
<g transform="translate(484,352) scale(3.7766666666667)"><rect width="6" height="6"></rect></g>
<g transform="translate(506,352) scale(3.7766666666667)"><rect width="6" height="6"></rect></g>
<g transform="translate(528,352) scale(3.7766666666667)"><rect width="6" height="6"></rect></g>
<g transform="translate(616,352) scale(3.7766666666667)"><rect width="6" height="6"></rect></g>
<g transform="translate(638,352) scale(3.7766666666667)"><rect width="6" height="6"></rect></g>
<g transform="translate(660,352) scale(3.7766666666667)"><rect width="6" height="6"></rect></g>
<g transform="translate(726,352) scale(3.7766666666667)"><rect width="6" height="6"></rect></g>
<g transform="translate(770,352) scale(3.7766666666667)"><rect width="6" height="6"></rect></g>
<g transform="translate(814,352) scale(3.7766666666667)"><rect width="6" height="6"></rect></g>
<g transform="translate(880,352) scale(3.7766666666667)"><rect width="6" height="6"></rect></g>
<g transform="translate(44,374) scale(3.7766666666667)"><rect width="6" height="6"></rect></g>
<g transform="translate(66,374) scale(3.7766666666667)"><rect width="6" height="6"></rect></g>
<g transform="translate(154,374) scale(3.7766666666667)"><rect width="6" height="6"></rect></g>
<g transform="translate(198,374) scale(3.7766666666667)"><rect width="6" height="6"></rect></g>
<g transform="translate(220,374) scale(3.7766666666667)"><rect width="6" height="6"></rect></g>
<g transform="translate(330,374) scale(3.7766666666667)"><rect width="6" height="6"></rect></g>
<g transform="translate(352,374) scale(3.7766666666667)"><rect width="6" height="6"></rect></g>
<g transform="translate(374,374) scale(3.7766666666667)"><rect width="6" height="6"></rect></g>
<g transform="translate(396,374) scale(3.7766666666667)"><rect width="6" height="6"></rect></g>
<g transform="translate(462,374) scale(3.7766666666667)"><rect width="6" height="6"></rect></g>
<g transform="translate(506,374) scale(3.7766666666667)"><rect width="6" height="6"></rect></g>
<g transform="translate(528,374) scale(3.7766666666667)"><rect width="6" height="6"></rect></g>
<g transform="translate(572,374) scale(3.7766666666667)"><rect width="6" height="6"></rect></g>
<g transform="translate(594,374) scale(3.7766666666667)"><rect width="6" height="6"></rect></g>
<g transform="translate(638,374) scale(3.7766666666667)"><rect width="6" height="6"></rect></g>
<g transform="translate(704,374) scale(3.7766666666667)"><rect width="6" height="6"></rect></g>
<g transform="translate(726,374) scale(3.7766666666667)"><rect width="6" height="6"></rect></g>
<g transform="translate(748,374) scale(3.7766666666667)"><rect width="6" height="6"></rect></g>
<g transform="translate(792,374) scale(3.7766666666667)"><rect width="6" height="6"></rect></g>
<g transform="translate(858,374) scale(3.7766666666667)"><rect width="6" height="6"></rect></g>
<g transform="translate(132,396) scale(3.7766666666667)"><rect width="6" height="6"></rect></g>
<g transform="translate(154,396) scale(3.7766666666667)"><rect width="6" height="6"></rect></g>
<g transform="translate(176,396) scale(3.7766666666667)"><rect width="6" height="6"></rect></g>
<g transform="translate(220,396) scale(3.7766666666667)"><rect width="6" height="6"></rect></g>
<g transform="translate(330,396) scale(3.7766666666667)"><rect width="6" height="6"></rect></g>
<g transform="translate(440,396) scale(3.7766666666667)"><rect width="6" height="6"></rect></g>
<g transform="translate(484,396) scale(3.7766666666667)"><rect width="6" height="6"></rect></g>
<g transform="translate(506,396) scale(3.7766666666667)"><rect width="6" height="6"></rect></g>
<g transform="translate(572,396) scale(3.7766666666667)"><rect width="6" height="6"></rect></g>
<g transform="translate(638,396) scale(3.7766666666667)"><rect width="6" height="6"></rect></g>
<g transform="translate(682,396) scale(3.7766666666667)"><rect width="6" height="6"></rect></g>
<g transform="translate(726,396) scale(3.7766666666667)"><rect width="6" height="6"></rect></g>
<g transform="translate(770,396) scale(3.7766666666667)"><rect width="6" height="6"></rect></g>
<g transform="translate(814,396) scale(3.7766666666667)"><rect width="6" height="6"></rect></g>
<g transform="translate(880,396) scale(3.7766666666667)"><rect width="6" height="6"></rect></g>
<g transform="translate(902,396) scale(3.7766666666667)"><rect width="6" height="6"></rect></g>
<g transform="translate(924,396) scale(3.7766666666667)"><rect width="6" height="6"></rect></g>
<g transform="translate(66,418) scale(3.7766666666667)"><rect width="6" height="6"></rect></g>
<g transform="translate(220,418) scale(3.7766666666667)"><rect width="6" height="6"></rect></g>
<g transform="translate(308,418) scale(3.7766666666667)"><rect width="6" height="6"></rect></g>
<g transform="translate(330,418) scale(3.7766666666667)"><rect width="6" height="6"></rect></g>
<g transform="translate(352,418) scale(3.7766666666667)"><rect width="6" height="6"></rect></g>
<g transform="translate(440,418) scale(3.7766666666667)"><rect width="6" height="6"></rect></g>
<g transform="translate(528,418) scale(3.7766666666667)"><rect width="6" height="6"></rect></g>
<g transform="translate(550,418) scale(3.7766666666667)"><rect width="6" height="6"></rect></g>
<g transform="translate(572,418) scale(3.7766666666667)"><rect width="6" height="6"></rect></g>
<g transform="translate(616,418) scale(3.7766666666667)"><rect width="6" height="6"></rect></g>
<g transform="translate(660,418) scale(3.7766666666667)"><rect width="6" height="6"></rect></g>
<g transform="translate(682,418) scale(3.7766666666667)"><rect width="6" height="6"></rect></g>
<g transform="translate(704,418) scale(3.7766666666667)"><rect width="6" height="6"></rect></g>
<g transform="translate(726,418) scale(3.7766666666667)"><rect width="6" height="6"></rect></g>
<g transform="translate(792,418) scale(3.7766666666667)"><rect width="6" height="6"></rect></g>
<g transform="translate(814,418) scale(3.7766666666667)"><rect width="6" height="6"></rect></g>
<g transform="translate(836,418) scale(3.7766666666667)"><rect width="6" height="6"></rect></g>
<g transform="translate(858,418) scale(3.7766666666667)"><rect width="6" height="6"></rect></g>
<g transform="translate(924,418) scale(3.7766666666667)"><rect width="6" height="6"></rect></g>
<g transform="translate(66,440) scale(3.7766666666667)"><rect width="6" height="6"></rect></g>
<g transform="translate(132,440) scale(3.7766666666667)"><rect width="6" height="6"></rect></g>
<g transform="translate(154,440) scale(3.7766666666667)"><rect width="6" height="6"></rect></g>
<g transform="translate(176,440) scale(3.7766666666667)"><rect width="6" height="6"></rect></g>
<g transform="translate(198,440) scale(3.7766666666667)"><rect width="6" height="6"></rect></g>
<g transform="translate(220,440) scale(3.7766666666667)"><rect width="6" height="6"></rect></g>
<g transform="translate(264,440) scale(3.7766666666667)"><rect width="6" height="6"></rect></g>
<g transform="translate(286,440) scale(3.7766666666667)"><rect width="6" height="6"></rect></g>
<g transform="translate(330,440) scale(3.7766666666667)"><rect width="6" height="6"></rect></g>
<g transform="translate(396,440) scale(3.7766666666667)"><rect width="6" height="6"></rect></g>
<g transform="translate(418,440) scale(3.7766666666667)"><rect width="6" height="6"></rect></g>
<g transform="translate(528,440) scale(3.7766666666667)"><rect width="6" height="6"></rect></g>
<g transform="translate(550,440) scale(3.7766666666667)"><rect width="6" height="6"></rect></g>
<g transform="translate(572,440) scale(3.7766666666667)"><rect width="6" height="6"></rect></g>
<g transform="translate(638,440) scale(3.7766666666667)"><rect width="6" height="6"></rect></g>
<g transform="translate(682,440) scale(3.7766666666667)"><rect width="6" height="6"></rect></g>
<g transform="translate(748,440) scale(3.7766666666667)"><rect width="6" height="6"></rect></g>
<g transform="translate(770,440) scale(3.7766666666667)"><rect width="6" height="6"></rect></g>
<g transform="translate(836,440) scale(3.7766666666667)"><rect width="6" height="6"></rect></g>
<g transform="translate(88,462) scale(3.7766666666667)"><rect width="6" height="6"></rect></g>
<g transform="translate(132,462) scale(3.7766666666667)"><rect width="6" height="6"></rect></g>
<g transform="translate(220,462) scale(3.7766666666667)"><rect width="6" height="6"></rect></g>
<g transform="translate(264,462) scale(3.7766666666667)"><rect width="6" height="6"></rect></g>
<g transform="translate(286,462) scale(3.7766666666667)"><rect width="6" height="6"></rect></g>
<g transform="translate(308,462) scale(3.7766666666667)"><rect width="6" height="6"></rect></g>
<g transform="translate(330,462) scale(3.7766666666667)"><rect width="6" height="6"></rect></g>
<g transform="translate(352,462) scale(3.7766666666667)"><rect width="6" height="6"></rect></g>
<g transform="translate(418,462) scale(3.7766666666667)"><rect width="6" height="6"></rect></g>
<g transform="translate(440,462) scale(3.7766666666667)"><rect width="6" height="6"></rect></g>
<g transform="translate(572,462) scale(3.7766666666667)"><rect width="6" height="6"></rect></g>
<g transform="translate(616,462) scale(3.7766666666667)"><rect width="6" height="6"></rect></g>
<g transform="translate(638,462) scale(3.7766666666667)"><rect width="6" height="6"></rect></g>
<g transform="translate(660,462) scale(3.7766666666667)"><rect width="6" height="6"></rect></g>
<g transform="translate(682,462) scale(3.7766666666667)"><rect width="6" height="6"></rect></g>
<g transform="translate(704,462) scale(3.7766666666667)"><rect width="6" height="6"></rect></g>
<g transform="translate(726,462) scale(3.7766666666667)"><rect width="6" height="6"></rect></g>
<g transform="translate(748,462) scale(3.7766666666667)"><rect width="6" height="6"></rect></g>
<g transform="translate(792,462) scale(3.7766666666667)"><rect width="6" height="6"></rect></g>
<g transform="translate(836,462) scale(3.7766666666667)"><rect width="6" height="6"></rect></g>
<g transform="translate(858,462) scale(3.7766666666667)"><rect width="6" height="6"></rect></g>
<g transform="translate(902,462) scale(3.7766666666667)"><rect width="6" height="6"></rect></g>
<g transform="translate(924,462) scale(3.7766666666667)"><rect width="6" height="6"></rect></g>
<g transform="translate(44,484) scale(3.7766666666667)"><rect width="6" height="6"></rect></g>
<g transform="translate(66,484) scale(3.7766666666667)"><rect width="6" height="6"></rect></g>
<g transform="translate(110,484) scale(3.7766666666667)"><rect width="6" height="6"></rect></g>
<g transform="translate(132,484) scale(3.7766666666667)"><rect width="6" height="6"></rect></g>
<g transform="translate(154,484) scale(3.7766666666667)"><rect width="6" height="6"></rect></g>
<g transform="translate(176,484) scale(3.7766666666667)"><rect width="6" height="6"></rect></g>
<g transform="translate(198,484) scale(3.7766666666667)"><rect width="6" height="6"></rect></g>
<g transform="translate(264,484) scale(3.7766666666667)"><rect width="6" height="6"></rect></g>
<g transform="translate(330,484) scale(3.7766666666667)"><rect width="6" height="6"></rect></g>
<g transform="translate(352,484) scale(3.7766666666667)"><rect width="6" height="6"></rect></g>
<g transform="translate(396,484) scale(3.7766666666667)"><rect width="6" height="6"></rect></g>
<g transform="translate(418,484) scale(3.7766666666667)"><rect width="6" height="6"></rect></g>
<g transform="translate(440,484) scale(3.7766666666667)"><rect width="6" height="6"></rect></g>
<g transform="translate(506,484) scale(3.7766666666667)"><rect width="6" height="6"></rect></g>
<g transform="translate(528,484) scale(3.7766666666667)"><rect width="6" height="6"></rect></g>
<g transform="translate(550,484) scale(3.7766666666667)"><rect width="6" height="6"></rect></g>
<g transform="translate(638,484) scale(3.7766666666667)"><rect width="6" height="6"></rect></g>
<g transform="translate(726,484) scale(3.7766666666667)"><rect width="6" height="6"></rect></g>
<g transform="translate(748,484) scale(3.7766666666667)"><rect width="6" height="6"></rect></g>
<g transform="translate(836,484) scale(3.7766666666667)"><rect width="6" height="6"></rect></g>
<g transform="translate(880,484) scale(3.7766666666667)"><rect width="6" height="6"></rect></g>
<g transform="translate(902,484) scale(3.7766666666667)"><rect width="6" height="6"></rect></g>
<g transform="translate(44,506) scale(3.7766666666667)"><rect width="6" height="6"></rect></g>
<g transform="translate(66,506) scale(3.7766666666667)"><rect width="6" height="6"></rect></g>
<g transform="translate(88,506) scale(3.7766666666667)"><rect width="6" height="6"></rect></g>
<g transform="translate(132,506) scale(3.7766666666667)"><rect width="6" height="6"></rect></g>
<g transform="translate(154,506) scale(3.7766666666667)"><rect width="6" height="6"></rect></g>
<g transform="translate(242,506) scale(3.7766666666667)"><rect width="6" height="6"></rect></g>
<g transform="translate(286,506) scale(3.7766666666667)"><rect width="6" height="6"></rect></g>
<g transform="translate(308,506) scale(3.7766666666667)"><rect width="6" height="6"></rect></g>
<g transform="translate(418,506) scale(3.7766666666667)"><rect width="6" height="6"></rect></g>
<g transform="translate(506,506) scale(3.7766666666667)"><rect width="6" height="6"></rect></g>
<g transform="translate(594,506) scale(3.7766666666667)"><rect width="6" height="6"></rect></g>
<g transform="translate(616,506) scale(3.7766666666667)"><rect width="6" height="6"></rect></g>
<g transform="translate(682,506) scale(3.7766666666667)"><rect width="6" height="6"></rect></g>
<g transform="translate(704,506) scale(3.7766666666667)"><rect width="6" height="6"></rect></g>
<g transform="translate(726,506) scale(3.7766666666667)"><rect width="6" height="6"></rect></g>
<g transform="translate(748,506) scale(3.7766666666667)"><rect width="6" height="6"></rect></g>
<g transform="translate(770,506) scale(3.7766666666667)"><rect width="6" height="6"></rect></g>
<g transform="translate(792,506) scale(3.7766666666667)"><rect width="6" height="6"></rect></g>
<g transform="translate(814,506) scale(3.7766666666667)"><rect width="6" height="6"></rect></g>
<g transform="translate(858,506) scale(3.7766666666667)"><rect width="6" height="6"></rect></g>
<g transform="translate(880,506) scale(3.7766666666667)"><rect width="6" height="6"></rect></g>
<g transform="translate(902,506) scale(3.7766666666667)"><rect width="6" height="6"></rect></g>
<g transform="translate(924,506) scale(3.7766666666667)"><rect width="6" height="6"></rect></g>
<g transform="translate(66,528) scale(3.7766666666667)"><rect width="6" height="6"></rect></g>
<g transform="translate(110,528) scale(3.7766666666667)"><rect width="6" height="6"></rect></g>
<g transform="translate(154,528) scale(3.7766666666667)"><rect width="6" height="6"></rect></g>
<g transform="translate(176,528) scale(3.7766666666667)"><rect width="6" height="6"></rect></g>
<g transform="translate(264,528) scale(3.7766666666667)"><rect width="6" height="6"></rect></g>
<g transform="translate(286,528) scale(3.7766666666667)"><rect width="6" height="6"></rect></g>
<g transform="translate(330,528) scale(3.7766666666667)"><rect width="6" height="6"></rect></g>
<g transform="translate(462,528) scale(3.7766666666667)"><rect width="6" height="6"></rect></g>
<g transform="translate(484,528) scale(3.7766666666667)"><rect width="6" height="6"></rect></g>
<g transform="translate(506,528) scale(3.7766666666667)"><rect width="6" height="6"></rect></g>
<g transform="translate(572,528) scale(3.7766666666667)"><rect width="6" height="6"></rect></g>
<g transform="translate(616,528) scale(3.7766666666667)"><rect width="6" height="6"></rect></g>
<g transform="translate(638,528) scale(3.7766666666667)"><rect width="6" height="6"></rect></g>
<g transform="translate(660,528) scale(3.7766666666667)"><rect width="6" height="6"></rect></g>
<g transform="translate(682,528) scale(3.7766666666667)"><rect width="6" height="6"></rect></g>
<g transform="translate(748,528) scale(3.7766666666667)"><rect width="6" height="6"></rect></g>
<g transform="translate(792,528) scale(3.7766666666667)"><rect width="6" height="6"></rect></g>
<g transform="translate(880,528) scale(3.7766666666667)"><rect width="6" height="6"></rect></g>
<g transform="translate(44,550) scale(3.7766666666667)"><rect width="6" height="6"></rect></g>
<g transform="translate(88,550) scale(3.7766666666667)"><rect width="6" height="6"></rect></g>
<g transform="translate(110,550) scale(3.7766666666667)"><rect width="6" height="6"></rect></g>
<g transform="translate(154,550) scale(3.7766666666667)"><rect width="6" height="6"></rect></g>
<g transform="translate(198,550) scale(3.7766666666667)"><rect width="6" height="6"></rect></g>
<g transform="translate(220,550) scale(3.7766666666667)"><rect width="6" height="6"></rect></g>
<g transform="translate(286,550) scale(3.7766666666667)"><rect width="6" height="6"></rect></g>
<g transform="translate(330,550) scale(3.7766666666667)"><rect width="6" height="6"></rect></g>
<g transform="translate(352,550) scale(3.7766666666667)"><rect width="6" height="6"></rect></g>
<g transform="translate(418,550) scale(3.7766666666667)"><rect width="6" height="6"></rect></g>
<g transform="translate(440,550) scale(3.7766666666667)"><rect width="6" height="6"></rect></g>
<g transform="translate(506,550) scale(3.7766666666667)"><rect width="6" height="6"></rect></g>
<g transform="translate(616,550) scale(3.7766666666667)"><rect width="6" height="6"></rect></g>
<g transform="translate(770,550) scale(3.7766666666667)"><rect width="6" height="6"></rect></g>
<g transform="translate(792,550) scale(3.7766666666667)"><rect width="6" height="6"></rect></g>
<g transform="translate(814,550) scale(3.7766666666667)"><rect width="6" height="6"></rect></g>
<g transform="translate(858,550) scale(3.7766666666667)"><rect width="6" height="6"></rect></g>
<g transform="translate(880,550) scale(3.7766666666667)"><rect width="6" height="6"></rect></g>
<g transform="translate(88,572) scale(3.7766666666667)"><rect width="6" height="6"></rect></g>
<g transform="translate(110,572) scale(3.7766666666667)"><rect width="6" height="6"></rect></g>
<g transform="translate(132,572) scale(3.7766666666667)"><rect width="6" height="6"></rect></g>
<g transform="translate(154,572) scale(3.7766666666667)"><rect width="6" height="6"></rect></g>
<g transform="translate(176,572) scale(3.7766666666667)"><rect width="6" height="6"></rect></g>
<g transform="translate(242,572) scale(3.7766666666667)"><rect width="6" height="6"></rect></g>
<g transform="translate(264,572) scale(3.7766666666667)"><rect width="6" height="6"></rect></g>
<g transform="translate(286,572) scale(3.7766666666667)"><rect width="6" height="6"></rect></g>
<g transform="translate(330,572) scale(3.7766666666667)"><rect width="6" height="6"></rect></g>
<g transform="translate(352,572) scale(3.7766666666667)"><rect width="6" height="6"></rect></g>
<g transform="translate(462,572) scale(3.7766666666667)"><rect width="6" height="6"></rect></g>
<g transform="translate(528,572) scale(3.7766666666667)"><rect width="6" height="6"></rect></g>
<g transform="translate(572,572) scale(3.7766666666667)"><rect width="6" height="6"></rect></g>
<g transform="translate(638,572) scale(3.7766666666667)"><rect width="6" height="6"></rect></g>
<g transform="translate(682,572) scale(3.7766666666667)"><rect width="6" height="6"></rect></g>
<g transform="translate(726,572) scale(3.7766666666667)"><rect width="6" height="6"></rect></g>
<g transform="translate(924,572) scale(3.7766666666667)"><rect width="6" height="6"></rect></g>
<g transform="translate(44,594) scale(3.7766666666667)"><rect width="6" height="6"></rect></g>
<g transform="translate(66,594) scale(3.7766666666667)"><rect width="6" height="6"></rect></g>
<g transform="translate(154,594) scale(3.7766666666667)"><rect width="6" height="6"></rect></g>
<g transform="translate(198,594) scale(3.7766666666667)"><rect width="6" height="6"></rect></g>
<g transform="translate(220,594) scale(3.7766666666667)"><rect width="6" height="6"></rect></g>
<g transform="translate(308,594) scale(3.7766666666667)"><rect width="6" height="6"></rect></g>
<g transform="translate(330,594) scale(3.7766666666667)"><rect width="6" height="6"></rect></g>
<g transform="translate(374,594) scale(3.7766666666667)"><rect width="6" height="6"></rect></g>
<g transform="translate(418,594) scale(3.7766666666667)"><rect width="6" height="6"></rect></g>
<g transform="translate(440,594) scale(3.7766666666667)"><rect width="6" height="6"></rect></g>
<g transform="translate(462,594) scale(3.7766666666667)"><rect width="6" height="6"></rect></g>
<g transform="translate(506,594) scale(3.7766666666667)"><rect width="6" height="6"></rect></g>
<g transform="translate(550,594) scale(3.7766666666667)"><rect width="6" height="6"></rect></g>
<g transform="translate(594,594) scale(3.7766666666667)"><rect width="6" height="6"></rect></g>
<g transform="translate(616,594) scale(3.7766666666667)"><rect width="6" height="6"></rect></g>
<g transform="translate(660,594) scale(3.7766666666667)"><rect width="6" height="6"></rect></g>
<g transform="translate(726,594) scale(3.7766666666667)"><rect width="6" height="6"></rect></g>
<g transform="translate(770,594) scale(3.7766666666667)"><rect width="6" height="6"></rect></g>
<g transform="translate(792,594) scale(3.7766666666667)"><rect width="6" height="6"></rect></g>
<g transform="translate(814,594) scale(3.7766666666667)"><rect width="6" height="6"></rect></g>
<g transform="translate(836,594) scale(3.7766666666667)"><rect width="6" height="6"></rect></g>
<g transform="translate(858,594) scale(3.7766666666667)"><rect width="6" height="6"></rect></g>
<g transform="translate(902,594) scale(3.7766666666667)"><rect width="6" height="6"></rect></g>
<g transform="translate(924,594) scale(3.7766666666667)"><rect width="6" height="6"></rect></g>
<g transform="translate(66,616) scale(3.7766666666667)"><rect width="6" height="6"></rect></g>
<g transform="translate(88,616) scale(3.7766666666667)"><rect width="6" height="6"></rect></g>
<g transform="translate(110,616) scale(3.7766666666667)"><rect width="6" height="6"></rect></g>
<g transform="translate(176,616) scale(3.7766666666667)"><rect width="6" height="6"></rect></g>
<g transform="translate(198,616) scale(3.7766666666667)"><rect width="6" height="6"></rect></g>
<g transform="translate(264,616) scale(3.7766666666667)"><rect width="6" height="6"></rect></g>
<g transform="translate(374,616) scale(3.7766666666667)"><rect width="6" height="6"></rect></g>
<g transform="translate(396,616) scale(3.7766666666667)"><rect width="6" height="6"></rect></g>
<g transform="translate(462,616) scale(3.7766666666667)"><rect width="6" height="6"></rect></g>
<g transform="translate(506,616) scale(3.7766666666667)"><rect width="6" height="6"></rect></g>
<g transform="translate(528,616) scale(3.7766666666667)"><rect width="6" height="6"></rect></g>
<g transform="translate(594,616) scale(3.7766666666667)"><rect width="6" height="6"></rect></g>
<g transform="translate(638,616) scale(3.7766666666667)"><rect width="6" height="6"></rect></g>
<g transform="translate(660,616) scale(3.7766666666667)"><rect width="6" height="6"></rect></g>
<g transform="translate(748,616) scale(3.7766666666667)"><rect width="6" height="6"></rect></g>
<g transform="translate(792,616) scale(3.7766666666667)"><rect width="6" height="6"></rect></g>
<g transform="translate(814,616) scale(3.7766666666667)"><rect width="6" height="6"></rect></g>
<g transform="translate(836,616) scale(3.7766666666667)"><rect width="6" height="6"></rect></g>
<g transform="translate(44,638) scale(3.7766666666667)"><rect width="6" height="6"></rect></g>
<g transform="translate(66,638) scale(3.7766666666667)"><rect width="6" height="6"></rect></g>
<g transform="translate(198,638) scale(3.7766666666667)"><rect width="6" height="6"></rect></g>
<g transform="translate(220,638) scale(3.7766666666667)"><rect width="6" height="6"></rect></g>
<g transform="translate(330,638) scale(3.7766666666667)"><rect width="6" height="6"></rect></g>
<g transform="translate(352,638) scale(3.7766666666667)"><rect width="6" height="6"></rect></g>
<g transform="translate(374,638) scale(3.7766666666667)"><rect width="6" height="6"></rect></g>
<g transform="translate(418,638) scale(3.7766666666667)"><rect width="6" height="6"></rect></g>
<g transform="translate(506,638) scale(3.7766666666667)"><rect width="6" height="6"></rect></g>
<g transform="translate(528,638) scale(3.7766666666667)"><rect width="6" height="6"></rect></g>
<g transform="translate(572,638) scale(3.7766666666667)"><rect width="6" height="6"></rect></g>
<g transform="translate(638,638) scale(3.7766666666667)"><rect width="6" height="6"></rect></g>
<g transform="translate(726,638) scale(3.7766666666667)"><rect width="6" height="6"></rect></g>
<g transform="translate(748,638) scale(3.7766666666667)"><rect width="6" height="6"></rect></g>
<g transform="translate(770,638) scale(3.7766666666667)"><rect width="6" height="6"></rect></g>
<g transform="translate(792,638) scale(3.7766666666667)"><rect width="6" height="6"></rect></g>
<g transform="translate(814,638) scale(3.7766666666667)"><rect width="6" height="6"></rect></g>
<g transform="translate(836,638) scale(3.7766666666667)"><rect width="6" height="6"></rect></g>
<g transform="translate(858,638) scale(3.7766666666667)"><rect width="6" height="6"></rect></g>
<g transform="translate(902,638) scale(3.7766666666667)"><rect width="6" height="6"></rect></g>
<g transform="translate(924,638) scale(3.7766666666667)"><rect width="6" height="6"></rect></g>
<g transform="translate(44,660) scale(3.7766666666667)"><rect width="6" height="6"></rect></g>
<g transform="translate(110,660) scale(3.7766666666667)"><rect width="6" height="6"></rect></g>
<g transform="translate(132,660) scale(3.7766666666667)"><rect width="6" height="6"></rect></g>
<g transform="translate(154,660) scale(3.7766666666667)"><rect width="6" height="6"></rect></g>
<g transform="translate(176,660) scale(3.7766666666667)"><rect width="6" height="6"></rect></g>
<g transform="translate(198,660) scale(3.7766666666667)"><rect width="6" height="6"></rect></g>
<g transform="translate(264,660) scale(3.7766666666667)"><rect width="6" height="6"></rect></g>
<g transform="translate(308,660) scale(3.7766666666667)"><rect width="6" height="6"></rect></g>
<g transform="translate(462,660) scale(3.7766666666667)"><rect width="6" height="6"></rect></g>
<g transform="translate(484,660) scale(3.7766666666667)"><rect width="6" height="6"></rect></g>
<g transform="translate(506,660) scale(3.7766666666667)"><rect width="6" height="6"></rect></g>
<g transform="translate(550,660) scale(3.7766666666667)"><rect width="6" height="6"></rect></g>
<g transform="translate(572,660) scale(3.7766666666667)"><rect width="6" height="6"></rect></g>
<g transform="translate(682,660) scale(3.7766666666667)"><rect width="6" height="6"></rect></g>
<g transform="translate(726,660) scale(3.7766666666667)"><rect width="6" height="6"></rect></g>
<g transform="translate(748,660) scale(3.7766666666667)"><rect width="6" height="6"></rect></g>
<g transform="translate(792,660) scale(3.7766666666667)"><rect width="6" height="6"></rect></g>
<g transform="translate(858,660) scale(3.7766666666667)"><rect width="6" height="6"></rect></g>
<g transform="translate(880,660) scale(3.7766666666667)"><rect width="6" height="6"></rect></g>
<g transform="translate(924,660) scale(3.7766666666667)"><rect width="6" height="6"></rect></g>
<g transform="translate(44,682) scale(3.7766666666667)"><rect width="6" height="6"></rect></g>
<g transform="translate(132,682) scale(3.7766666666667)"><rect width="6" height="6"></rect></g>
<g transform="translate(198,682) scale(3.7766666666667)"><rect width="6" height="6"></rect></g>
<g transform="translate(286,682) scale(3.7766666666667)"><rect width="6" height="6"></rect></g>
<g transform="translate(418,682) scale(3.7766666666667)"><rect width="6" height="6"></rect></g>
<g transform="translate(440,682) scale(3.7766666666667)"><rect width="6" height="6"></rect></g>
<g transform="translate(462,682) scale(3.7766666666667)"><rect width="6" height="6"></rect></g>
<g transform="translate(484,682) scale(3.7766666666667)"><rect width="6" height="6"></rect></g>
<g transform="translate(506,682) scale(3.7766666666667)"><rect width="6" height="6"></rect></g>
<g transform="translate(528,682) scale(3.7766666666667)"><rect width="6" height="6"></rect></g>
<g transform="translate(572,682) scale(3.7766666666667)"><rect width="6" height="6"></rect></g>
<g transform="translate(638,682) scale(3.7766666666667)"><rect width="6" height="6"></rect></g>
<g transform="translate(660,682) scale(3.7766666666667)"><rect width="6" height="6"></rect></g>
<g transform="translate(770,682) scale(3.7766666666667)"><rect width="6" height="6"></rect></g>
<g transform="translate(814,682) scale(3.7766666666667)"><rect width="6" height="6"></rect></g>
<g transform="translate(836,682) scale(3.7766666666667)"><rect width="6" height="6"></rect></g>
<g transform="translate(858,682) scale(3.7766666666667)"><rect width="6" height="6"></rect></g>
<g transform="translate(880,682) scale(3.7766666666667)"><rect width="6" height="6"></rect></g>
<g transform="translate(902,682) scale(3.7766666666667)"><rect width="6" height="6"></rect></g>
<g transform="translate(924,682) scale(3.7766666666667)"><rect width="6" height="6"></rect></g>
<g transform="translate(44,704) scale(3.7766666666667)"><rect width="6" height="6"></rect></g>
<g transform="translate(132,704) scale(3.7766666666667)"><rect width="6" height="6"></rect></g>
<g transform="translate(176,704) scale(3.7766666666667)"><rect width="6" height="6"></rect></g>
<g transform="translate(220,704) scale(3.7766666666667)"><rect width="6" height="6"></rect></g>
<g transform="translate(242,704) scale(3.7766666666667)"><rect width="6" height="6"></rect></g>
<g transform="translate(286,704) scale(3.7766666666667)"><rect width="6" height="6"></rect></g>
<g transform="translate(330,704) scale(3.7766666666667)"><rect width="6" height="6"></rect></g>
<g transform="translate(352,704) scale(3.7766666666667)"><rect width="6" height="6"></rect></g>
<g transform="translate(374,704) scale(3.7766666666667)"><rect width="6" height="6"></rect></g>
<g transform="translate(396,704) scale(3.7766666666667)"><rect width="6" height="6"></rect></g>
<g transform="translate(440,704) scale(3.7766666666667)"><rect width="6" height="6"></rect></g>
<g transform="translate(506,704) scale(3.7766666666667)"><rect width="6" height="6"></rect></g>
<g transform="translate(528,704) scale(3.7766666666667)"><rect width="6" height="6"></rect></g>
<g transform="translate(550,704) scale(3.7766666666667)"><rect width="6" height="6"></rect></g>
<g transform="translate(594,704) scale(3.7766666666667)"><rect width="6" height="6"></rect></g>
<g transform="translate(616,704) scale(3.7766666666667)"><rect width="6" height="6"></rect></g>
<g transform="translate(704,704) scale(3.7766666666667)"><rect width="6" height="6"></rect></g>
<g transform="translate(748,704) scale(3.7766666666667)"><rect width="6" height="6"></rect></g>
<g transform="translate(770,704) scale(3.7766666666667)"><rect width="6" height="6"></rect></g>
<g transform="translate(792,704) scale(3.7766666666667)"><rect width="6" height="6"></rect></g>
<g transform="translate(814,704) scale(3.7766666666667)"><rect width="6" height="6"></rect></g>
<g transform="translate(858,704) scale(3.7766666666667)"><rect width="6" height="6"></rect></g>
<g transform="translate(880,704) scale(3.7766666666667)"><rect width="6" height="6"></rect></g>
<g transform="translate(44,726) scale(3.7766666666667)"><rect width="6" height="6"></rect></g>
<g transform="translate(132,726) scale(3.7766666666667)"><rect width="6" height="6"></rect></g>
<g transform="translate(198,726) scale(3.7766666666667)"><rect width="6" height="6"></rect></g>
<g transform="translate(264,726) scale(3.7766666666667)"><rect width="6" height="6"></rect></g>
<g transform="translate(330,726) scale(3.7766666666667)"><rect width="6" height="6"></rect></g>
<g transform="translate(352,726) scale(3.7766666666667)"><rect width="6" height="6"></rect></g>
<g transform="translate(374,726) scale(3.7766666666667)"><rect width="6" height="6"></rect></g>
<g transform="translate(440,726) scale(3.7766666666667)"><rect width="6" height="6"></rect></g>
<g transform="translate(506,726) scale(3.7766666666667)"><rect width="6" height="6"></rect></g>
<g transform="translate(550,726) scale(3.7766666666667)"><rect width="6" height="6"></rect></g>
<g transform="translate(594,726) scale(3.7766666666667)"><rect width="6" height="6"></rect></g>
<g transform="translate(616,726) scale(3.7766666666667)"><rect width="6" height="6"></rect></g>
<g transform="translate(660,726) scale(3.7766666666667)"><rect width="6" height="6"></rect></g>
<g transform="translate(770,726) scale(3.7766666666667)"><rect width="6" height="6"></rect></g>
<g transform="translate(792,726) scale(3.7766666666667)"><rect width="6" height="6"></rect></g>
<g transform="translate(814,726) scale(3.7766666666667)"><rect width="6" height="6"></rect></g>
<g transform="translate(858,726) scale(3.7766666666667)"><rect width="6" height="6"></rect></g>
<g transform="translate(924,726) scale(3.7766666666667)"><rect width="6" height="6"></rect></g>
<g transform="translate(44,748) scale(3.7766666666667)"><rect width="6" height="6"></rect></g>
<g transform="translate(176,748) scale(3.7766666666667)"><rect width="6" height="6"></rect></g>
<g transform="translate(198,748) scale(3.7766666666667)"><rect width="6" height="6"></rect></g>
<g transform="translate(220,748) scale(3.7766666666667)"><rect width="6" height="6"></rect></g>
<g transform="translate(264,748) scale(3.7766666666667)"><rect width="6" height="6"></rect></g>
<g transform="translate(330,748) scale(3.7766666666667)"><rect width="6" height="6"></rect></g>
<g transform="translate(374,748) scale(3.7766666666667)"><rect width="6" height="6"></rect></g>
<g transform="translate(418,748) scale(3.7766666666667)"><rect width="6" height="6"></rect></g>
<g transform="translate(506,748) scale(3.7766666666667)"><rect width="6" height="6"></rect></g>
<g transform="translate(528,748) scale(3.7766666666667)"><rect width="6" height="6"></rect></g>
<g transform="translate(550,748) scale(3.7766666666667)"><rect width="6" height="6"></rect></g>
<g transform="translate(682,748) scale(3.7766666666667)"><rect width="6" height="6"></rect></g>
<g transform="translate(748,748) scale(3.7766666666667)"><rect width="6" height="6"></rect></g>
<g transform="translate(770,748) scale(3.7766666666667)"><rect width="6" height="6"></rect></g>
<g transform="translate(792,748) scale(3.7766666666667)"><rect width="6" height="6"></rect></g>
<g transform="translate(814,748) scale(3.7766666666667)"><rect width="6" height="6"></rect></g>
<g transform="translate(836,748) scale(3.7766666666667)"><rect width="6" height="6"></rect></g>
<g transform="translate(880,748) scale(3.7766666666667)"><rect width="6" height="6"></rect></g>
<g transform="translate(220,770) scale(3.7766666666667)"><rect width="6" height="6"></rect></g>
<g transform="translate(264,770) scale(3.7766666666667)"><rect width="6" height="6"></rect></g>
<g transform="translate(308,770) scale(3.7766666666667)"><rect width="6" height="6"></rect></g>
<g transform="translate(330,770) scale(3.7766666666667)"><rect width="6" height="6"></rect></g>
<g transform="translate(352,770) scale(3.7766666666667)"><rect width="6" height="6"></rect></g>
<g transform="translate(396,770) scale(3.7766666666667)"><rect width="6" height="6"></rect></g>
<g transform="translate(418,770) scale(3.7766666666667)"><rect width="6" height="6"></rect></g>
<g transform="translate(440,770) scale(3.7766666666667)"><rect width="6" height="6"></rect></g>
<g transform="translate(484,770) scale(3.7766666666667)"><rect width="6" height="6"></rect></g>
<g transform="translate(550,770) scale(3.7766666666667)"><rect width="6" height="6"></rect></g>
<g transform="translate(616,770) scale(3.7766666666667)"><rect width="6" height="6"></rect></g>
<g transform="translate(660,770) scale(3.7766666666667)"><rect width="6" height="6"></rect></g>
<g transform="translate(704,770) scale(3.7766666666667)"><rect width="6" height="6"></rect></g>
<g transform="translate(748,770) scale(3.7766666666667)"><rect width="6" height="6"></rect></g>
<g transform="translate(836,770) scale(3.7766666666667)"><rect width="6" height="6"></rect></g>
<g transform="translate(880,770) scale(3.7766666666667)"><rect width="6" height="6"></rect></g>
<g transform="translate(902,770) scale(3.7766666666667)"><rect width="6" height="6"></rect></g>
<g transform="translate(924,770) scale(3.7766666666667)"><rect width="6" height="6"></rect></g>
<g transform="translate(242,792) scale(3.7766666666667)"><rect width="6" height="6"></rect></g>
<g transform="translate(264,792) scale(3.7766666666667)"><rect width="6" height="6"></rect></g>
<g transform="translate(286,792) scale(3.7766666666667)"><rect width="6" height="6"></rect></g>
<g transform="translate(308,792) scale(3.7766666666667)"><rect width="6" height="6"></rect></g>
<g transform="translate(330,792) scale(3.7766666666667)"><rect width="6" height="6"></rect></g>
<g transform="translate(352,792) scale(3.7766666666667)"><rect width="6" height="6"></rect></g>
<g transform="translate(396,792) scale(3.7766666666667)"><rect width="6" height="6"></rect></g>
<g transform="translate(440,792) scale(3.7766666666667)"><rect width="6" height="6"></rect></g>
<g transform="translate(528,792) scale(3.7766666666667)"><rect width="6" height="6"></rect></g>
<g transform="translate(572,792) scale(3.7766666666667)"><rect width="6" height="6"></rect></g>
<g transform="translate(594,792) scale(3.7766666666667)"><rect width="6" height="6"></rect></g>
<g transform="translate(638,792) scale(3.7766666666667)"><rect width="6" height="6"></rect></g>
<g transform="translate(704,792) scale(3.7766666666667)"><rect width="6" height="6"></rect></g>
<g transform="translate(726,792) scale(3.7766666666667)"><rect width="6" height="6"></rect></g>
<g transform="translate(748,792) scale(3.7766666666667)"><rect width="6" height="6"></rect></g>
<g transform="translate(792,792) scale(3.7766666666667)"><rect width="6" height="6"></rect></g>
<g transform="translate(836,792) scale(3.7766666666667)"><rect width="6" height="6"></rect></g>
<g transform="translate(264,814) scale(3.7766666666667)"><rect width="6" height="6"></rect></g>
<g transform="translate(308,814) scale(3.7766666666667)"><rect width="6" height="6"></rect></g>
<g transform="translate(330,814) scale(3.7766666666667)"><rect width="6" height="6"></rect></g>
<g transform="translate(396,814) scale(3.7766666666667)"><rect width="6" height="6"></rect></g>
<g transform="translate(462,814) scale(3.7766666666667)"><rect width="6" height="6"></rect></g>
<g transform="translate(484,814) scale(3.7766666666667)"><rect width="6" height="6"></rect></g>
<g transform="translate(572,814) scale(3.7766666666667)"><rect width="6" height="6"></rect></g>
<g transform="translate(594,814) scale(3.7766666666667)"><rect width="6" height="6"></rect></g>
<g transform="translate(660,814) scale(3.7766666666667)"><rect width="6" height="6"></rect></g>
<g transform="translate(726,814) scale(3.7766666666667)"><rect width="6" height="6"></rect></g>
<g transform="translate(748,814) scale(3.7766666666667)"><rect width="6" height="6"></rect></g>
<g transform="translate(836,814) scale(3.7766666666667)"><rect width="6" height="6"></rect></g>
<g transform="translate(858,814) scale(3.7766666666667)"><rect width="6" height="6"></rect></g>
<g transform="translate(902,814) scale(3.7766666666667)"><rect width="6" height="6"></rect></g>
<g transform="translate(220,836) scale(3.7766666666667)"><rect width="6" height="6"></rect></g>
<g transform="translate(264,836) scale(3.7766666666667)"><rect width="6" height="6"></rect></g>
<g transform="translate(286,836) scale(3.7766666666667)"><rect width="6" height="6"></rect></g>
<g transform="translate(308,836) scale(3.7766666666667)"><rect width="6" height="6"></rect></g>
<g transform="translate(374,836) scale(3.7766666666667)"><rect width="6" height="6"></rect></g>
<g transform="translate(396,836) scale(3.7766666666667)"><rect width="6" height="6"></rect></g>
<g transform="translate(418,836) scale(3.7766666666667)"><rect width="6" height="6"></rect></g>
<g transform="translate(440,836) scale(3.7766666666667)"><rect width="6" height="6"></rect></g>
<g transform="translate(484,836) scale(3.7766666666667)"><rect width="6" height="6"></rect></g>
<g transform="translate(528,836) scale(3.7766666666667)"><rect width="6" height="6"></rect></g>
<g transform="translate(594,836) scale(3.7766666666667)"><rect width="6" height="6"></rect></g>
<g transform="translate(660,836) scale(3.7766666666667)"><rect width="6" height="6"></rect></g>
<g transform="translate(704,836) scale(3.7766666666667)"><rect width="6" height="6"></rect></g>
<g transform="translate(748,836) scale(3.7766666666667)"><rect width="6" height="6"></rect></g>
<g transform="translate(770,836) scale(3.7766666666667)"><rect width="6" height="6"></rect></g>
<g transform="translate(792,836) scale(3.7766666666667)"><rect width="6" height="6"></rect></g>
<g transform="translate(814,836) scale(3.7766666666667)"><rect width="6" height="6"></rect></g>
<g transform="translate(836,836) scale(3.7766666666667)"><rect width="6" height="6"></rect></g>
<g transform="translate(858,836) scale(3.7766666666667)"><rect width="6" height="6"></rect></g>
<g transform="translate(880,836) scale(3.7766666666667)"><rect width="6" height="6"></rect></g>
<g transform="translate(902,836) scale(3.7766666666667)"><rect width="6" height="6"></rect></g>
<g transform="translate(924,836) scale(3.7766666666667)"><rect width="6" height="6"></rect></g>
<g transform="translate(220,858) scale(3.7766666666667)"><rect width="6" height="6"></rect></g>
<g transform="translate(330,858) scale(3.7766666666667)"><rect width="6" height="6"></rect></g>
<g transform="translate(396,858) scale(3.7766666666667)"><rect width="6" height="6"></rect></g>
<g transform="translate(418,858) scale(3.7766666666667)"><rect width="6" height="6"></rect></g>
<g transform="translate(484,858) scale(3.7766666666667)"><rect width="6" height="6"></rect></g>
<g transform="translate(572,858) scale(3.7766666666667)"><rect width="6" height="6"></rect></g>
<g transform="translate(594,858) scale(3.7766666666667)"><rect width="6" height="6"></rect></g>
<g transform="translate(660,858) scale(3.7766666666667)"><rect width="6" height="6"></rect></g>
<g transform="translate(726,858) scale(3.7766666666667)"><rect width="6" height="6"></rect></g>
<g transform="translate(770,858) scale(3.7766666666667)"><rect width="6" height="6"></rect></g>
<g transform="translate(814,858) scale(3.7766666666667)"><rect width="6" height="6"></rect></g>
<g transform="translate(902,858) scale(3.7766666666667)"><rect width="6" height="6"></rect></g>
<g transform="translate(924,858) scale(3.7766666666667)"><rect width="6" height="6"></rect></g>
<g transform="translate(220,880) scale(3.7766666666667)"><rect width="6" height="6"></rect></g>
<g transform="translate(242,880) scale(3.7766666666667)"><rect width="6" height="6"></rect></g>
<g transform="translate(286,880) scale(3.7766666666667)"><rect width="6" height="6"></rect></g>
<g transform="translate(352,880) scale(3.7766666666667)"><rect width="6" height="6"></rect></g>
<g transform="translate(418,880) scale(3.7766666666667)"><rect width="6" height="6"></rect></g>
<g transform="translate(462,880) scale(3.7766666666667)"><rect width="6" height="6"></rect></g>
<g transform="translate(550,880) scale(3.7766666666667)"><rect width="6" height="6"></rect></g>
<g transform="translate(594,880) scale(3.7766666666667)"><rect width="6" height="6"></rect></g>
<g transform="translate(638,880) scale(3.7766666666667)"><rect width="6" height="6"></rect></g>
<g transform="translate(660,880) scale(3.7766666666667)"><rect width="6" height="6"></rect></g>
<g transform="translate(682,880) scale(3.7766666666667)"><rect width="6" height="6"></rect></g>
<g transform="translate(704,880) scale(3.7766666666667)"><rect width="6" height="6"></rect></g>
<g transform="translate(748,880) scale(3.7766666666667)"><rect width="6" height="6"></rect></g>
<g transform="translate(770,880) scale(3.7766666666667)"><rect width="6" height="6"></rect></g>
<g transform="translate(792,880) scale(3.7766666666667)"><rect width="6" height="6"></rect></g>
<g transform="translate(814,880) scale(3.7766666666667)"><rect width="6" height="6"></rect></g>
<g transform="translate(836,880) scale(3.7766666666667)"><rect width="6" height="6"></rect></g>
<g transform="translate(858,880) scale(3.7766666666667)"><rect width="6" height="6"></rect></g>
<g transform="translate(902,880) scale(3.7766666666667)"><rect width="6" height="6"></rect></g>
<g transform="translate(242,902) scale(3.7766666666667)"><rect width="6" height="6"></rect></g>
<g transform="translate(264,902) scale(3.7766666666667)"><rect width="6" height="6"></rect></g>
<g transform="translate(330,902) scale(3.7766666666667)"><rect width="6" height="6"></rect></g>
<g transform="translate(352,902) scale(3.7766666666667)"><rect width="6" height="6"></rect></g>
<g transform="translate(396,902) scale(3.7766666666667)"><rect width="6" height="6"></rect></g>
<g transform="translate(418,902) scale(3.7766666666667)"><rect width="6" height="6"></rect></g>
<g transform="translate(462,902) scale(3.7766666666667)"><rect width="6" height="6"></rect></g>
<g transform="translate(484,902) scale(3.7766666666667)"><rect width="6" height="6"></rect></g>
<g transform="translate(506,902) scale(3.7766666666667)"><rect width="6" height="6"></rect></g>
<g transform="translate(550,902) scale(3.7766666666667)"><rect width="6" height="6"></rect></g>
<g transform="translate(572,902) scale(3.7766666666667)"><rect width="6" height="6"></rect></g>
<g transform="translate(616,902) scale(3.7766666666667)"><rect width="6" height="6"></rect></g>
<g transform="translate(748,902) scale(3.7766666666667)"><rect width="6" height="6"></rect></g>
<g transform="translate(836,902) scale(3.7766666666667)"><rect width="6" height="6"></rect></g>
<g transform="translate(902,902) scale(3.7766666666667)"><rect width="6" height="6"></rect></g>
<g transform="translate(264,924) scale(3.7766666666667)"><rect width="6" height="6"></rect></g>
<g transform="translate(330,924) scale(3.7766666666667)"><rect width="6" height="6"></rect></g>
<g transform="translate(418,924) scale(3.7766666666667)"><rect width="6" height="6"></rect></g>
<g transform="translate(506,924) scale(3.7766666666667)"><rect width="6" height="6"></rect></g>
<g transform="translate(594,924) scale(3.7766666666667)"><rect width="6" height="6"></rect></g>
<g transform="translate(616,924) scale(3.7766666666667)"><rect width="6" height="6"></rect></g>
<g transform="translate(638,924) scale(3.7766666666667)"><rect width="6" height="6"></rect></g>
<g transform="translate(682,924) scale(3.7766666666667)"><rect width="6" height="6"></rect></g>
<g transform="translate(726,924) scale(3.7766666666667)"><rect width="6" height="6"></rect></g>
<g transform="translate(770,924) scale(3.7766666666667)"><rect width="6" height="6"></rect></g>
<g transform="translate(792,924) scale(3.7766666666667)"><rect width="6" height="6"></rect></g>
<g transform="translate(814,924) scale(3.7766666666667)"><rect width="6" height="6"></rect></g>
<g transform="translate(836,924) scale(3.7766666666667)"><rect width="6" height="6"></rect></g>
<g transform="translate(858,924) scale(3.7766666666667)"><rect width="6" height="6"></rect></g>
</g><g><g transform="translate(44,44)" fill="#000000"><g transform="scale(11)"><path d="M0,0v14h14V0H0z M12,12H2V2h10V12z"></path></g></g>
<g transform="translate(792,44)" fill="#000000"><g transform="scale(11)"><path d="M0,0v14h14V0H0z M12,12H2V2h10V12z"></path></g></g>
<g transform="translate(44,792)" fill="#000000"><g transform="scale(11)"><path d="M0,0v14h14V0H0z M12,12H2V2h10V12z"></path></g></g>
<g transform="translate(88,88)" fill="#000000"><g transform="scale(11)"><rect width="6" height="6"></rect></g></g>
<g transform="translate(836,88)" fill="#000000"><g transform="scale(11)"><rect width="6" height="6"></rect></g></g>
<g transform="translate(88,836)" fill="#000000"><g transform="scale(11)"><rect width="6" height="6"></rect></g></g></g>
</svg>